<svg width="512" height="512" viewBox="0 0 512 512" fill="none" xmlns="http://www.w3.org/2000/svg">
  <defs>
    <linearGradient id="gradient" x1="0" y1="0" x2="512" y2="512" gradientUnits="userSpaceOnUse">
      <stop offset="0%" stop-color="#8b5cf6"/>
      <stop offset="100%" stop-color="#6d28d9"/>
    </linearGradient>
  </defs>
  
  <!-- Background with rounded corners -->
  <rect width="512" height="512" rx="112" fill="url(#gradient)"/>
  
  <!-- MessageSquare icon - using actual Lucide path scaled and centered -->
  <!-- Original path: d="M21 15a2 2 0 0 1-2 2H7l-4 4V5a2 2 0 0 1 2-2h14a2 2 0 0 1 2 2z" in 24x24 viewBox -->
  <!-- Scaled by 16x and translated to center -->
  <g transform="translate(64, 80) scale(16)">
    <path d="M21 15a2 2 0 0 1-2 2H7l-4 4V5a2 2 0 0 1 2-2h14a2 2 0 0 1 2 2z" fill="white"/>
  </g>
</svg>

